<svg width="20" height="20" viewBox="0 0 20 20" fill="none" xmlns="http://www.w3.org/2000/svg">
<path d="M16.2487 6.66927H14.1654V5.0026C14.1654 4.08594 13.4154 3.33594 12.4987 3.33594H2.4987C1.58203 3.33594 0.832031 4.08594 0.832031 5.0026V12.5026C0.832031 13.4193 1.58203 14.1693 2.4987 14.1693C2.4987 15.5526 3.61536 16.6693 4.9987 16.6693C6.38203 16.6693 7.4987 15.5526 7.4987 14.1693H12.4987C12.4987 15.5526 13.6154 16.6693 14.9987 16.6693C16.382 16.6693 17.4987 15.5526 17.4987 14.1693H18.332C18.7904 14.1693 19.1654 13.7943 19.1654 13.3359V10.5609C19.1654 10.2026 19.0487 9.8526 18.832 9.56094L16.9154 7.0026C16.757 6.79427 16.507 6.66927 16.2487 6.66927ZM4.9987 15.0026C4.54036 15.0026 4.16536 14.6276 4.16536 14.1693C4.16536 13.7109 4.54036 13.3359 4.9987 13.3359C5.45703 13.3359 5.83203 13.7109 5.83203 14.1693C5.83203 14.6276 5.45703 15.0026 4.9987 15.0026ZM16.2487 7.91927L17.882 10.0026H14.1654V7.91927H16.2487ZM14.9987 15.0026C14.5404 15.0026 14.1654 14.6276 14.1654 14.1693C14.1654 13.7109 14.5404 13.3359 14.9987 13.3359C15.457 13.3359 15.832 13.7109 15.832 14.1693C15.832 14.6276 15.457 15.0026 14.9987 15.0026Z" fill="currentColor"/>
</svg>
