<svg width="20" height="20" viewBox="0 0 20 20" fill="none" xmlns="http://www.w3.org/2000/svg">
<path d="M16.668 4.9974H13.3346V3.33073C13.3346 2.41406 12.5846 1.66406 11.668 1.66406H8.33464C7.41797 1.66406 6.66797 2.41406 6.66797 3.33073V4.9974H3.33464C2.41797 4.9974 1.66797 5.7474 1.66797 6.66406V16.6641C1.66797 17.5807 2.41797 18.3307 3.33464 18.3307H16.668C17.5846 18.3307 18.3346 17.5807 18.3346 16.6641V6.66406C18.3346 5.7474 17.5846 4.9974 16.668 4.9974ZM8.33464 3.33073H11.668V4.9974H8.33464V3.33073ZM12.5013 12.4974H10.8346V14.1641C10.8346 14.6224 10.4596 14.9974 10.0013 14.9974C9.54297 14.9974 9.16797 14.6224 9.16797 14.1641V12.4974H7.5013C7.04297 12.4974 6.66797 12.1224 6.66797 11.6641C6.66797 11.2057 7.04297 10.8307 7.5013 10.8307H9.16797V9.16406C9.16797 8.70573 9.54297 8.33073 10.0013 8.33073C10.4596 8.33073 10.8346 8.70573 10.8346 9.16406V10.8307H12.5013C12.9596 10.8307 13.3346 11.2057 13.3346 11.6641C13.3346 12.1224 12.9596 12.4974 12.5013 12.4974Z" fill="currentColor"/>
</svg>
