<svg width="20" height="20" viewBox="0 0 20 20" fill="none" xmlns="http://www.w3.org/2000/svg">
<path d="M10.0013 1.66406C5.4013 1.66406 1.66797 5.3974 1.66797 9.9974C1.66797 14.5974 5.4013 18.3307 10.0013 18.3307C14.6013 18.3307 18.3346 14.5974 18.3346 9.9974C18.3346 5.3974 14.6013 1.66406 10.0013 1.66406ZM10.0013 16.6641C6.31797 16.6641 3.33464 13.6807 3.33464 9.9974C3.33464 8.45573 3.85964 7.03906 4.74297 5.91406L14.0846 15.2557C12.9596 16.1391 11.543 16.6641 10.0013 16.6641ZM15.2596 14.0807L5.91797 4.73906C7.04297 3.85573 8.45964 3.33073 10.0013 3.33073C13.6846 3.33073 16.668 6.31406 16.668 9.9974C16.668 11.5391 16.143 12.9557 15.2596 14.0807Z" fill="currentColor"/>
</svg>
