<svg width="110" height="41" viewBox="0 0 110 41" fill="none" xmlns="http://www.w3.org/2000/svg">
<path d="M101.672 30.6928L110 28.7585V25.4792L106.189 26.0063V22.4324L109.53 22.1998V18.8623L106.189 18.6297V16.2884L103.434 14.6487V14.5324L110 15.5867V12.2492L101.672 10.3731V30.6928ZM90.2367 33.2706L97.5087 31.6309L100.617 10.0785L95.3977 8.90782L94.1676 28.0027H94.0512L92.8211 8.32249L87.6601 7.15184L90.2367 33.2706ZM80.6209 30.2819C80.0349 30.2819 79.6818 29.5222 79.6818 28.4058V12.5903C79.6818 11.4197 80.0349 10.7142 80.6209 10.7142C81.3232 10.7142 81.7346 11.474 81.7346 12.8229V28.1693C81.7346 29.464 81.3232 30.2819 80.6209 30.2819ZM79.8021 36.0228C83.9659 36.0228 86.8374 32.569 86.8374 27.5297V13.4741C86.8374 8.43878 83.9659 4.98109 79.8021 4.98109C76.6938 4.98109 74.5829 7.79143 74.5829 11.9507V29.0531C74.5829 33.2124 76.6938 36.0228 79.8021 36.0228ZM64.6139 39.1859L73.7602 37.0772V31.3944L66.2553 32.6232V32.507L69.7128 30.4564V2.98865L64.61 1.818L64.6139 39.1859ZM56.6395 41L61.7423 39.8294V1.17453L56.6395 0.00387569V41ZM31.3116 18.8623L30.6674 18.9785V12.0089L27.3846 11.1871V11.0708L31.0788 10.4855C32.1343 10.3111 32.662 11.0127 32.662 12.7687V16.1643C32.6581 17.866 32.2468 18.6878 31.3116 18.8623ZM38.1684 37.488V37.3717L35.5879 22.1998C37.0547 20.6764 37.7571 18.2188 37.7571 14.5285V13.2997C37.7571 10.1366 37.2875 8.02789 36.2903 6.6828C35.2348 5.27569 32.8328 4.69036 30.5433 5.21755L25.5607 6.3882V34.6196L30.6636 35.7902V24.0178H31.2495L32.891 36.3755L38.1684 37.488ZM19.057 24.2504L17.0625 24.0178L18.1762 12.5981H18.2926L19.057 24.2504ZM24.5091 34.3831L21.8704 7.26425L14.9515 8.8458L11.9596 31.4526L16.1816 32.4488L16.5347 29.5183L14.3073 27.8786V27.7623L19.4684 28.6422L19.8215 33.2706L24.5091 34.3831ZM7.85797 30.4602C10.6131 30.4602 11.6686 28.8206 11.6686 24.7194V23.3123L6.56577 22.9014V25.0101C6.56577 26.0063 6.33295 26.3591 5.68491 26.3591C4.98254 26.3591 4.513 25.7738 4.513 24.7775V16.2263C4.513 15.2883 4.98254 14.6448 5.74311 14.6448C6.38727 14.6448 6.56577 14.9394 6.56577 15.9938V18.5134L11.6686 18.1025V16.1682C11.6686 11.9507 10.7295 10.5436 7.91618 10.5436C6.21653 10.5436 4.28017 10.9545 2.99185 11.598C0.997283 12.5361 0 14.2921 0 16.6334V24.4248C0 26.708 0.644159 28.1151 2.11098 28.995C3.63601 29.9331 5.8052 30.4602 7.85797 30.4602ZM53.3566 41V0L48.2538 1.17065L49.7206 28.1732H49.6042L45.4404 1.81413L40.0466 3.04292V37.9532L45.1494 39.1239L43.9775 11.7724H44.0939L48.1413 39.8294L53.3566 41Z" fill="#F00037"/>
</svg>
