<svg width="456" height="115" viewBox="0 0 456 115" fill="none" xmlns="http://www.w3.org/2000/svg">
<g clip-path="url(#clip0_3879_3053)">
<path d="M0.000307078 92.8642V85.0096C6.97209 84.8899 13.9469 84.7702 20.9186 84.6505V93.1156C20.7329 95.9163 22.132 99.136 25.3318 99.1031C28.5406 99.0702 29.8199 95.7278 29.745 93.0049C29.5263 85.2011 24.3641 80.629 18.6327 75.596C9.25207 67.3404 -0.0146731 59.0429 0.000307078 45.7274C0.0152873 30.7991 11.4002 23.3395 25.3318 22.6034C39.4701 21.8553 50.7352 28.519 50.6633 43.7047V51.5294L29.745 52.2715V44.1505C29.9517 41.3438 28.6155 37.9955 25.3318 38.157C22.0811 38.3186 20.8557 41.7388 20.9186 44.5066C21.1074 52.6455 29.5562 58.9023 35.1378 63.9771C44.0301 72.0592 50.6813 79.6864 50.6633 92.2239C50.6423 107.311 39.563 114.657 25.3318 114.657C11.4691 114.657 -0.0686018 107.858 0.000307078 92.8642Z" fill="#F00037"/>
<path d="M68.8075 37.3246C64.3404 37.5161 59.8733 37.7106 55.4062 37.9021V22.0791C71.3152 21.2533 87.2212 20.4274 103.13 19.6016V35.8465C94.8491 36.2025 86.568 36.5586 78.287 36.9147V37.181C82.1039 38.6981 85.9179 40.2211 89.7289 41.7561V113.6L68.8075 113.612V37.3246Z" fill="#F00037"/>
<path d="M113.587 19.0557C124.975 18.4632 136.36 17.8737 147.748 17.2812C151.364 49.3701 154.96 81.4619 158.537 113.554C151.508 113.557 144.48 113.563 137.454 113.566C136.909 106.552 136.363 99.535 135.818 92.5212L114.244 92.7786V93.0479C117.899 94.6726 121.548 96.3064 125.194 97.9462C124.76 103.156 124.322 108.365 123.888 113.575C116.859 113.578 109.833 113.584 102.805 113.587C106.421 82.0783 110.016 50.567 113.59 19.0527L113.587 19.0557ZM134.506 76.013C133.31 60.8603 132.112 45.7106 130.911 30.5608C130.779 30.5668 130.716 30.5698 130.584 30.5758C129.389 45.7734 128.19 60.971 126.989 76.1716C129.997 76.1088 131.501 76.0788 134.506 76.016V76.013Z" fill="#F00037"/>
<path d="M172.268 82.3385C167.076 60.4921 161.848 38.6548 156.578 16.8263C163.607 16.4613 170.636 16.0962 177.661 15.7312C179.3 33.0174 180.933 50.3036 182.566 67.5927C182.698 67.5898 182.761 67.5868 182.892 67.5838C184.585 50.121 186.275 32.6583 187.959 15.1956C194.933 14.8335 201.905 14.4714 208.88 14.1094C203.688 36.5063 198.457 58.8973 193.19 81.2763V113.536L172.268 113.548V82.3355V82.3385Z" fill="#F00037"/>
<path d="M262.655 11.3197C263.365 19.4646 264.072 27.6125 264.779 35.7574C266.397 53.2261 265.914 70.9791 265.923 88.4957C266.055 88.4957 266.118 88.4957 266.25 88.4927C268.656 62.5828 271.053 36.673 273.441 10.7631C278.618 10.4938 283.792 10.2245 288.969 9.95823C291.375 36.0057 293.772 62.0532 296.159 88.1007C296.291 88.1007 296.354 88.1007 296.486 88.0977C296.507 70.1502 296.351 52.0621 297.792 34.1565C298.445 25.9039 299.102 17.6513 299.755 9.39868C306.73 9.03662 313.701 8.67456 320.676 8.3125C317.422 43.3666 314.154 78.4208 310.87 113.472C302.535 113.478 294.2 113.481 285.862 113.487C284.34 91.829 282.815 70.1712 281.284 48.5163C281.152 48.5193 281.089 48.5223 280.958 48.5283C279.49 70.1831 278.018 91.841 276.544 113.496C268.209 113.502 259.871 113.505 251.536 113.511C248.283 79.8092 245.014 46.1105 241.73 12.4149C248.705 12.0528 255.677 11.6907 262.652 11.3287L262.655 11.3197Z" fill="#F00037"/>
<path d="M329.012 7.87525C335.986 7.51319 342.958 7.15112 349.933 6.78906V113.445C342.958 113.448 335.986 113.454 329.012 113.457V7.87525Z" fill="#F00037"/>
<path d="M359.41 6.29712C366.385 5.93506 373.357 5.573 380.331 5.21094V88.539C376.521 90.5408 372.707 92.5336 368.893 94.5234V94.8316C378.318 94.7419 387.744 94.6521 397.166 94.5653V113.419C384.583 113.425 371.997 113.434 359.413 113.44V6.29712H359.41Z" fill="#F00037"/>
<path d="M405.5 3.90345C412.855 3.52044 420.208 3.14042 427.563 2.75742C444.898 1.92258 456.232 10.7228 455.998 28.6643V85.9986C456.049 103.746 445.114 113.581 427.563 113.399C420.208 113.402 412.855 113.408 405.5 113.411V3.90345ZM435.08 86.7497V29.0144C435.32 24.0023 432.596 21.2734 427.563 21.8838C423.368 22.0634 419.174 22.2459 414.979 22.4254V22.7396C418.796 24.5709 422.61 26.4081 426.418 28.2513V94.2872C426.877 94.2842 427.104 94.2812 427.563 94.2752C432.623 94.6103 435.311 91.7587 435.08 86.7497Z" fill="#F00037"/>
</g>
<defs>
<clipPath id="clip0_3879_3053">
<rect width="455.423" height="114.663" fill="white"/>
</clipPath>
</defs>
</svg>
